<svg width="700" height="560" viewBox="0 0 700 560" xmlns="http://www.w3.org/2000/svg">
  <defs>
    <linearGradient id="ag" x1="0" y1="0" x2="1" y2="1">
      <stop offset="0" stop-color="#137a6e"/><stop offset="1" stop-color="#0a3a37"/>
    </linearGradient>
  </defs>
  <rect width="700" height="560" rx="24" fill="url(#ag)"/>
  <g opacity="0.2" fill="#9fd6c9">
    <path d="M540 90c-70 42-100 110-92 174 42-18 80-56 98-98 18-42 12-54-6-76z"/>
    <path d="M120 420c74-36 142-30 196 6-42 32-100 42-154 30-30-7-36-24-42-36z"/>
  </g>
  <circle cx="350" cy="250" r="120" fill="#ffffff14"/>
  <path d="M350 165c-32 21-46 52-46 80 40-12 64-42 68-80z" fill="#d4ede9"/>
  <path d="M350 165c32 21 46 52 46 80-40-12-64-42-68-80z" fill="#9fd6c9"/>
  <path d="M350 360c0-50 0-100 0-150" stroke="#d4ede9" stroke-width="3" stroke-linecap="round" opacity="0.6"/>
  <text x="350" y="470" text-anchor="middle" font-family="Georgia, serif" font-size="26" fill="#ffffff">Rooted in Nature</text>
  <text x="350" y="505" text-anchor="middle" font-family="Arial" font-size="14" letter-spacing="2" fill="#d9b26a">SINCE 2026</text>
</svg>
